<?xml version="1.0" encoding="UTF-8"?>
<svg id="Layer_1" data-name="Layer 1" xmlns="http://www.w3.org/2000/svg" viewBox="0 0 322 301">
  <defs>
    <style>
      .cls-1, .cls-2 {
        stroke-width: 0px;
      }

      .cls-2 {
        fill: #fff;
      }
    </style>
  </defs>
  <path class="cls-2" d="M322,301H0C0,200.67,0,100.33,0,0c107.33,0,214.67,0,322,0,0,100.33,0,200.67,0,301ZM37.89,144.61c-.61,27.94,7.74,52.69,24.2,74.47,16.39,21.68,37.46,36.73,64.76,42.99v-33.96c-40.05-16.31-57.68-55.45-53.95-83.53h69.45c0,2.09,0,3.74,0,5.39-.03,20.16-.07,40.32-.1,60.48-.03,19.83-.13,39.66-.04,59.48.04,8.99,4.9,15.79,12.39,18.01,6.86,2.03,15.32-1.11,19.15-8.31,1.91-3.59,2.46-8.25,2.48-12.44.15-38.99.05-77.98.03-116.98,0-1.93,0-3.86,0-6.12,2.79,0,4.77,0,6.76,0,30.49,0,60.99.09,91.48-.07,3.9-.02,8.09-.56,11.61-2.09,6.82-2.96,10.41-10.89,8.95-17.83-1.65-7.82-8.55-13.47-17.44-13.75-6.99-.22-13.99.13-20.99.13-71.65-.03-143.3-.14-214.95.04-4.22.01-8.93,1.56-12.55,3.8-6,3.72-7.54,10.11-6.07,16.76,1.67,7.54,6.81,11.95,14.81,13.51ZM142.32,81.12c0,4.48-.2,8.45.12,12.39.1,1.15,1.67,3.11,2.6,3.13,10.27.23,20.55.14,31.43.14v-15.82c12.43,0,24.24.24,36.04-.1,6.3-.18,10.93,2.38,14.83,6.8,1.75,1.99,3.01,4.41,4.76,6.4.97,1.1,2.49,2.38,3.78,2.4,12.29.18,24.58.11,36.73.11.25-.74.48-1.08.42-1.35-.17-.81-.38-1.62-.71-2.38-6.93-15.93-17.22-29.22-31.42-39.33-5.83-4.15-12.38-6.36-19.64-6.36-42.33.01-84.66-.12-126.99.12-4.62.03-9.71,1.27-13.77,3.46-17.43,9.42-28.5,24.62-36.6,42.27-.46,1-.63,2.13-1.04,3.58,11.88,0,23.35-.13,34.81.08,3.41.06,5.33-1.08,7.22-3.92,3.72-5.58,7.99-11.29,15.42-11.51,13.64-.4,27.3-.11,42.01-.11ZM240.83,183.41c-11.59,19.83-26.74,34.99-47.55,44.01-.95.41-2.02,1.92-2.03,2.92-.15,10.45-.09,20.9-.09,31.78,34.29-7.59,58.64-27.36,75.74-57.54-8.7-7.06-17.29-14.04-26.06-21.17ZM142.52,32.87h33.56c1.01-9.65.42-18.3-8.5-23.76-5.92-3.63-12.08-3.56-17.93.1-9.06,5.67-7.22,14.75-7.14,23.66Z"/>
  <path class="cls-1" d="M37.89,144.61c-7.99-1.55-13.14-5.96-14.81-13.51-1.47-6.65.07-13.04,6.07-16.76,3.61-2.24,8.32-3.78,12.55-3.8,71.65-.18,143.3-.07,214.95-.04,7,0,14-.35,20.99-.13,8.89.28,15.79,5.93,17.44,13.75,1.46,6.94-2.13,14.88-8.95,17.83-3.52,1.53-7.72,2.07-11.61,2.09-30.49.16-60.99.08-91.48.07-1.98,0-3.97,0-6.76,0,0,2.26,0,4.19,0,6.12.03,38.99.12,77.99-.03,116.98-.02,4.18-.57,8.85-2.48,12.44-3.83,7.19-12.29,10.34-19.15,8.31-7.49-2.22-12.35-9.02-12.39-18.01-.09-19.83.01-39.66.04-59.48.03-20.16.07-40.32.1-60.48,0-1.65,0-3.3,0-5.39h-69.45c-3.73,28.08,13.9,67.23,53.95,83.53v33.96c-27.31-6.26-48.37-21.32-64.76-42.99-16.47-21.78-24.81-46.54-24.2-74.47Z"/>
  <path class="cls-1" d="M142.32,81.12c-14.71,0-28.37-.28-42.01.11-7.43.22-11.7,5.93-15.42,11.51-1.89,2.84-3.81,3.98-7.22,3.92-11.46-.2-22.93-.08-34.81-.08.41-1.45.58-2.58,1.04-3.58,8.09-17.64,19.17-32.85,36.6-42.27,4.06-2.19,9.15-3.43,13.77-3.46,42.33-.24,84.66-.11,126.99-.12,7.26,0,13.81,2.21,19.64,6.36,14.2,10.11,24.48,23.39,31.42,39.33.33.76.54,1.57.71,2.38.06.27-.18.61-.42,1.35-12.15,0-24.44.07-36.73-.11-1.29-.02-2.82-1.31-3.78-2.4-1.75-1.99-3.01-4.41-4.76-6.4-3.9-4.42-8.53-6.98-14.83-6.8-11.8.34-23.61.1-36.04.1v15.82c-10.89,0-21.16.08-31.43-.14-.93-.02-2.5-1.98-2.6-3.13-.33-3.94-.12-7.91-.12-12.39Z"/>
  <path class="cls-1" d="M240.83,183.41c8.78,7.13,17.37,14.11,26.06,21.17-17.09,30.17-41.45,49.94-75.74,57.54,0-10.88-.06-21.33.09-31.78.01-1.01,1.08-2.51,2.03-2.92,20.81-9.02,35.95-24.18,47.55-44.01Z"/>
  <path class="cls-1" d="M142.52,32.87c-.08-8.91-1.92-17.99,7.14-23.66,5.85-3.66,12.01-3.73,17.93-.1,8.91,5.46,9.51,14.11,8.5,23.76h-33.56Z"/>
</svg>